# xmcd
#
# Track frame offsets: 
#        150
#        15925
#        32708
#        51143
#        70616
#        88350
#        104597
#        122111
#        140604
#        156804
#        172529
#        195440
#        212366
#        228096
#        241310
#        256106
#        269683
#        286416
#        304676
#
# Disc length: 4401 seconds
#
# Revision: 1
# Processed by: cddbd v1.5.2PL0 Copyright (c) Steve Scherf et al.
# Submitted via: ExactAudioCopyFreeDBPlugin 1.0
#
DISCID=fa112f13
DTITLE=Jill Johnson - Some Other Favourite Stories
DYEAR=2010
DGENRE=Country
TTITLE0=Roots and Wings
TTITLE1=Love Ain´t Nothing
TTITLE2=Don´t Feel Like Me
TTITLE3=Love Lessons
TTITLE4=When Love Doesn´t Love You
TTITLE5=Nathalie
TTITLE6=Too Late To Be Drinking
TTITLE7=Breakfast In NY
TTITLE8=Something I Can´t Do
TTITLE9=Better Than Me
TTITLE10=What Happened To Us
TTITLE11=A Woman Knows
TTITLE12=Baby Blue Paper
TTITLE13=When BeingWho You Are
TTITLE14=You´re Still Here
TTITLE15=Where The Rainbow Ends
TTITLE16=Just Like You Do
TTITLE17=Little Girl Of Mine
TTITLE18=It Is Too Late
EXTD=
EXTT0=
EXTT1=
EXTT2=
EXTT3=
EXTT4=
EXTT5=
EXTT6=
EXTT7=
EXTT8=
EXTT9=
EXTT10=
EXTT11=
EXTT12=
EXTT13=
EXTT14=
EXTT15=
EXTT16=
EXTT17=
EXTT18=
PLAYORDER=
